:FULLY-SPECIFIED
:FORCE-ALL-JOINTS-BE-3DOF
:DEGREES
645
root 5.64133 15.8767 -1.23712 13.833 20.0198 1.93353
lfemur -23.0125 25.4196 -23.7499
ltibia 64.6699 -0 0
lfoot -8.56286 1.72568 -1.10763
ltoes -1.76205 0 0
rfemur -48.8867 -16.03 27.3478
rtibia 66.0747 -0 0
rfoot -16.6837 -1.97401 1.10279
rtoes -6.99014 0 0
lowerback 0.394683 -5.06129 -2.39233
upperback -0.84239 -6.72232 1.48898
thorax -0.785039 -3.36617 2.8877
lowerneck -9.10303 -7.10907 -0.82017
upperneck 5.25998 -9.67985 4.04032
head 3.48377 -4.6575 0.728636
lclavicle 2.22815e-14 -7.99363e-15 -9.08526e-31
lhumerus -19.5147 -57.6201 96.1277
lradius 75.9344 -0 0
lwrist 26.7565 0 0
lhand -13.2897 -0.433761 -0.000141078
lfingers 7.12502 -0 0
lthumb 12.8133 29.1409 -0.00265299
rclavicle 2.22815e-14 -7.99363e-15 -9.08526e-31
rhumerus -26.0542 -7.34901 -65.2193
rradius 85.3304 -0 0
rwrist -29.5418 0 0
rhand -27.0723 -39.8681 -0.0140972
rfingers 7.12502 -0 0
rthumb -0.489932 -69.855 -0.0130787
646
root 5.631 15.8685 -1.18394 13.9895 18.5188 1.91609
lfemur -23.1701 25.6101 -23.8063
ltibia 65.184 -0 0
lfoot -8.03567 1.46758 -1.08008
ltoes -1.75434 0 0
rfemur -48.945 -16.1266 27.5459
rtibia 66.3484 -0 0
rfoot -17.1384 -2.28301 1.06421
rtoes -6.55857 0 0
lowerback 0.320658 -5.13706 -2.30288
upperback -0.899462 -6.82266 1.48198
thorax -0.803197 -3.41578 2.82837
lowerneck -9.17207 -6.98108 -0.761807
upperneck 5.08072 -9.50448 3.9684
head 3.42967 -4.57522 0.713187
lclavicle 2.20968e-14 -8.05619e-15 -9.12939e-31
lhumerus -19.3947 -58.2686 96.2542
lradius 76.4302 -0 0
lwrist 26.8028 0 0
lhand -13.1881 -0.39786 -0.00156682
lfingers 7.12502 -0 0
lthumb 12.9113 29.1715 -0.0038627
rclavicle 2.20968e-14 -8.05619e-15 -9.12939e-31
rhumerus -27.2125 -7.73999 -64.7598
rradius 84.3108 -0 0
rwrist -29.137 0 0
rhand -27.0685 -40.2882 -0.0121023
rfingers 7.12502 -0 0
rthumb -0.48631 -70.2752 -0.0111502
647
root 5.62075 15.8607 -1.1308 14.143 17.0278 1.89484
lfemur -23.3292 25.7953 -23.856
ltibia 65.7006 -0 0
lfoot -7.51292 1.21231 -1.05052
ltoes -1.74194 0 0
rfemur -48.9965 -16.2205 27.7389
rtibia 66.61 -0 0
rfoot -17.5831 -2.58701 1.02374
rtoes -6.13128 0 0
lowerback 0.247841 -5.21163 -2.2145
upperback -0.955917 -6.92159 1.4746
thorax -0.821454 -3.46469 2.76929
lowerneck -9.23965 -6.85434 -0.704272
upperneck 4.90351 -9.33119 3.89711
head 3.37614 -4.49381 0.697971
lclavicle 2.19068e-14 -8.11336e-15 -9.15035e-31
lhumerus -19.2627 -58.9099 96.3606
lradius 76.9204 -0 0
lwrist 26.8488 0 0
lhand -13.089 -0.36328 -0.00297175
lfingers 7.12502 -0 0
lthumb 13.0068 29.201 -0.0050492
rclavicle 2.19068e-14 -8.11336e-15 -9.15035e-31
rhumerus -28.3614 -8.11756 -64.2905
rradius 83.3068 -0 0
rwrist -28.7347 0 0
rhand -27.0659 -40.703 -0.010097
rfingers 7.12502 -0 0
rthumb -0.483726 -70.69 -0.00921287
648
root 5.61059 15.8535 -1.07774 14.2937 15.5477 1.87
lfemur -23.4898 25.9751 -23.8985
ltibia 66.2194 -0 0
lfoot -6.99499 0.960082 -1.01903
ltoes -1.72467 0 0
rfemur -49.0407 -16.3115 27.9263
rtibia 66.8591 -0 0
rfoot -18.0174 -2.88566 0.981574
rtoes -5.70864 0 0
lowerback 0.176322 -5.28492 -2.12727
upperback -1.0117 -7.01901 1.46682
thorax -0.839809 -3.51286 2.71049
lowerneck -9.30569 -6.72898 -0.647607
upperneck 4.72852 -9.16011 3.82655
head 3.32322 -4.41335 0.683009
lclavicle 2.17116e-14 -8.16483e-15 -9.14742e-31
lhumerus -19.1173 -59.5434 96.4449
lradius 77.4043 -0 0
lwrist 26.8947 0 0
lhand -12.9926 -0.330089 -0.00434611
lfingers 7.12502 -0 0
lthumb 13.0998 29.2292 -0.00620398
rclavicle 2.17116e-14 -8.16483e-15 -9.14742e-31
rhumerus -29.4999 -8.48131 -63.812
rradius 82.3195 -0 0
rwrist -28.3354 0 0
rhand -27.0643 -41.1121 -0.00809536
rfingers 7.12502 -0 0
rthumb -0.482224 -71.0991 -0.00728035
649
root 5.60053 15.8467 -1.02476 14.4415 14.0796 1.84178
lfemur -23.6517 26.1491 -23.9335
ltibia 66.7403 -0 0
lfoot -6.48231 0.711137 -0.985725
ltoes -1.70236 0 0
rfemur -49.0774 -16.3996 28.1079
rtibia 67.0949 -0 0
rfoot -18.4405 -3.17866 0.937896
rtoes -5.29101 0 0
lowerback 0.106189 -5.35686 -2.0413
upperback -1.06677 -7.11482 1.45861
thorax -0.858261 -3.56023 2.65201
lowerneck -9.37013 -6.60509 -0.591855
upperneck 4.55592 -8.99138 3.7568
head 3.27097 -4.3339 0.668324
lclavicle 2.15112e-14 -8.21034e-15 -9.11989e-31
lhumerus -18.9567 -60.1686 96.5054
lradius 77.8816 -0 0
lwrist 26.9404 0 0
lhand -12.8991 -0.298353 -0.00567991
lfingers 7.12502 -0 0
lthumb 13.19 29.2561 -0.00731841
rclavicle 2.15112e-14 -8.21034e-15 -9.11989e-31
rhumerus -30.6269 -8.83091 -63.3248
rradius 81.3499 -0 0
rwrist -27.9393 0 0
rhand -27.0639 -41.5152 -0.00611172
rfingers 7.12502 -0 0
rthumb -0.481845 -71.5022 -0.00536658
650
root 5.59058 15.8405 -0.971911 14.5866 12.6246 1.81039
lfemur -23.8149 26.3171 -23.9605
ltibia 67.2632 -0 0
lfoot -5.97526 0.465693 -0.950711
ltoes -1.67482 0 0
rfemur -49.1062 -16.4845 28.2833
rtibia 67.3169 -0 0
rfoot -18.8519 -3.46568 0.892904
rtoes -4.87876 0 0
lowerback 0.0375338 -5.42738 -1.95665
upperback -1.12107 -7.20892 1.44995
thorax -0.876811 -3.60675 2.59389
lowerneck -9.43288 -6.4828 -0.537058
upperneck 4.38588 -8.82515 3.68797
head 3.21942 -4.25552 0.653937
lclavicle 2.13057e-14 -8.24958e-15 -9.06713e-31
lhumerus -18.7794 -60.7849 96.5399
lradius 78.3518 -0 0
lwrist 26.9859 0 0
lhand -12.8085 -0.268139 -0.00696302
lfingers 7.12502 -0 0
lthumb 13.2774 29.2816 -0.00838368
rclavicle 2.13057e-14 -8.24958e-15 -9.06713e-31
rhumerus -31.7411 -9.16605 -62.8296
rradius 80.3992 -0 0
rwrist -27.5466 0 0
rhand -27.0647 -41.9118 -0.00416076
rfingers 7.12502 -0 0
rthumb -0.482634 -71.8987 -0.00348575
651
root 5.58075 15.8348 -0.919203 14.729 11.1836 1.77603
lfemur -23.9793 26.4788 -23.9794
ltibia 67.7879 -0 0
lfoot -5.47426 0.223973 -0.914104
ltoes -1.64188 0 0
rfemur -49.1268 -16.5664 28.4523
rtibia 67.5245 -0 0
rfoot -19.251 -3.74639 0.846801
rtoes -4.47224 0 0
lowerback -0.029554 -5.49641 -1.87345
upperback -1.17456 -7.30121 1.44083
thorax -0.895457 -3.65237 2.53615
lowerneck -9.49387 -6.36221 -0.483258
upperneck 4.21858 -8.66155 3.62015
head 3.16863 -4.1783 0.63987
lclavicle 2.10951e-14 -8.28227e-15 -8.9885e-31
lhumerus -18.5834 -61.3915 96.5463
lradius 78.8146 -0 0
lwrist 27.0312 0 0
lhand -12.7211 -0.239515 -0.00818516
lfingers 7.12502 -0 0
lthumb 13.3618 29.3057 -0.00939091
rclavicle 2.10951e-14 -8.28227e-15 -8.9885e-31
rhumerus -32.8415 -9.48644 -62.327
rradius 79.4683 -0 0
rwrist -27.1576 0 0
rhand -27.0668 -42.3015 -0.00225736
rfingers 7.12502 -0 0
rthumb -0.484633 -72.2884 -0.00165228
